Coordinates
version=1
nRows=19
nColumns=24
inDegrees=yes

Units are S.I. units (second, meters, Newtons, ...)
Angles are in degrees.

endheader
time	pelvis_tilt	pelvis_list	pelvis_rotation	pelvis_tx	pelvis_ty	pelvis_tz	hip_flexion_r	hip_adduction_r	hip_rotation_r	knee_angle_r	ankle_angle_r	subtalar_angle_r	mtp_angle_r	hip_flexion_l	hip_adduction_l	hip_rotation_l	knee_angle_l	ankle_angle_l	subtalar_angle_l	mtp_angle_l	lumbar_extension	lumbar_bending	lumbar_rotation
      5.30000000	      0.38863823	      3.48066691	     19.22101542	      0.96690823	      0.65996961	     -0.20306239	     20.30728039	     -7.02852614	    -21.38389324	     -9.09730353	     -3.21669255	    -11.59200355	      0.00000000	    -16.87091964	      2.73931992	     11.42074687	    -18.56536639	     16.27567763	     -0.65158069	      0.00000000	    -17.62027364	     -1.56109611	    -18.90074063
      5.31000000	      0.51704606	      2.76640013	     18.90537986	      0.97981716	      0.66024809	     -0.20224717	     19.90460918	     -5.65006190	    -20.12095067	     -9.87215128	     -2.73284172	    -13.77349553	      0.00000000	    -16.49648623	      1.84117480	     10.61861787	    -20.80436974	     14.27792692	     -0.48387941	      0.00000000	    -17.09211464	     -1.03145685	    -18.02450534
      5.32000000	      0.78921812	      1.94767782	     18.39338890	      0.99239971	      0.66098429	     -0.20136339	     19.49935840	     -4.10834443	    -18.30783180	    -10.92683408	     -2.36818640	    -16.20253902	      0.00000000	    -15.97256819	      0.97517684	      9.95103349	    -23.39191475	     11.54427866	     -1.04845391	      0.00000000	    -16.82151367	     -0.29693829	    -16.98577671
      5.33000000	      1.10505738	      1.10249102	     17.76080443	      1.00457194	      0.66204861	     -0.20046330	     19.15347482	     -2.55131071	    -16.38180047	    -12.20358965	     -1.76620092	    -18.14347680	      0.00000000	    -15.09307816	      0.19811320	      9.20751539	    -26.51161996	      8.22580540	     -1.82924621	      0.00000000	    -16.75001444	      0.53421596	    -15.93875502
      5.34000000	      1.44096964	      0.27803694	     17.09931514	      1.01633500	      0.66331246	     -0.19961862	     18.76043904	     -1.03720042	    -14.61008672	    -13.45696431	     -0.94433453	    -19.49144669	      0.00000000	    -13.80572845	     -0.48861551	      8.41344763	    -30.19072436	      4.42188826	     -2.75116925	      0.00000000	    -16.85903354	      1.41159855	    -14.98947187
      5.35000000	      1.71481660	     -0.49308822	     16.50043545	      1.02769193	      0.66456909	     -0.19888622	     18.28176743	      0.37221628	    -13.10972739	    -14.45270151	     -0.03424160	    -20.42809910	      0.00000000	    -12.02798498	     -1.07603516	      7.66261005	    -34.39707849	      0.37395177	     -3.81079949	      0.00000000	    -17.04136457	      2.27003955	    -14.20236530
      5.36000000	      1.88222511	     -1.23592135	     16.03110321	      1.03866152	      0.66564371	     -0.19830299	     17.71027507	      1.67280938	    -11.98297864	    -15.06727759	      0.88332206	    -21.05683547	      0.00000000	     -9.73646499	     -1.61387751	      7.01478602	    -39.04530154	     -3.55199688	     -5.04827923	      0.00000000	    -17.19760409	      3.11335882	    -13.59113434
      5.37000000	      1.93838270	     -1.98499710	     15.72393892	      1.04925759	      0.66642951	     -0.19789958	     17.05227543	      2.88207009	    -11.27592071	    -15.27287529	      1.79419852	    -21.42862247	      0.00000000	     -6.97598627	     -2.15010738	      6.48718759	    -44.01228045	     -6.96178697	     -6.59608504	      0.00000000	    -17.26868622	      3.97546247	    -13.08906018
      5.38000000	      1.91311975	     -2.78971730	     15.53802685	      1.05951339	      0.66690665	     -0.19761095	     16.32999475	      4.06615002	    -10.96976398	    -15.12431121	      2.71216925	    -21.53594299	      0.00000000	     -3.85965076	     -2.72842102	      6.06791933	    -49.11826544	     -9.60504845	     -8.64891101	      0.00000000	    -17.26840254	      4.87931547	    -12.59563442
      5.39000000	      1.85530291	     -3.65184656	     15.40679685	      1.06947574	      0.66715395	     -0.19736795	     15.54975234	      5.25779971	    -10.97483830	    -14.72483357	      3.69535169	    -21.32671706	      0.00000000	     -0.54399208	     -3.34479573	      5.72615113	    -54.15333297	    -11.42386366	    -11.35600610	      0.00000000	    -17.24687968	      5.81366660	    -12.02077837
      5.40000000	      1.81277331	     -4.53952948	     15.22589511	      1.07920246	      0.66730043	     -0.19707313	     14.73291422	      6.45249753	    -11.23720862	    -14.23539311	      4.75727434	    -20.76122089	      0.00000000	      2.81256397	     -3.97572727	      5.38221455	    -58.91591160	    -12.45199598	    -14.64948958	      0.00000000	    -17.29015509	      6.72822901	    -11.27487192
      5.41000000	      1.79973802	     -5.38438405	     14.94935274	      1.08875528	      0.66749439	     -0.19668340	     13.84680634	      7.60917488	    -11.58103682	    -13.68361436	      5.96438084	    -19.78321884	      0.00000000	      6.10368697	     -4.53128199	      5.08850522	    -63.25280660	    -12.79683705	    -18.16051033	      0.00000000	    -17.43487015	      7.53678064	    -10.28975098
      5.42000000	      1.79303288	     -6.11592112	     14.53038275	      1.09819182	      0.66782302	     -0.19615198	     12.91880279	      8.66011929	    -11.89613461	    -13.14386295	      7.27683149	    -18.46858322	      0.00000000	      9.28984432	     -4.95777864	      4.78988303	    -67.05433208	    -12.49209980	    -21.35302801	      0.00000000	    -17.67880865	      8.14842051	     -9.13730038
      5.43000000	      1.82193720	     -6.64823979	     13.93932817	      1.10756976	      0.66838363	     -0.19546317	     11.88750167	      9.53568654	    -12.04265853	    -12.64234569	      8.85094424	    -16.73178760	      0.00000000	     12.28789394	     -5.19924196	      4.44486000	    -70.26012247	    -11.55787951	    -23.64877914	      0.00000000	    -18.06814097	      8.47704066	     -7.90657958
      5.44000000	      1.70915102	     -7.03244271	     13.23182659	      1.11685126	      0.66896380	     -0.19463890	     10.94168459	     10.24954678	    -11.89562797	    -12.11304399	      9.83703729	    -15.60891259	      0.00000000	     15.33797757	     -5.27568336	      4.12017180	    -72.91882027	    -10.07253785	    -24.71290626	      0.00000000	    -18.36501640	      8.55419857	     -6.63015508
      5.45000000	      1.56745289	     -7.20787786	     12.43092824	      1.12611885	      0.66967148	     -0.19372312	      9.93299300	     10.75581564	    -11.51435978	    -11.55862725	     10.82532405	    -14.50130337	      0.00000000	     18.26686919	     -5.17043678	      3.79574089	    -74.96972570	     -8.30551539	    -24.64267078	      0.00000000	    -18.66909738	      8.35034543	     -5.42596695
      5.46000000	      1.33872445	     -7.23202535	     11.58380268	      1.13530396	      0.67036318	     -0.19278048	      8.97057039	     11.08465290	    -10.91430502	    -11.01410298	     11.65049734	    -13.61224177	      0.00000000	     21.16415281	     -4.91341804	      3.53528708	    -76.45030641	     -6.39657678	    -23.63911766	      0.00000000	    -18.90674082	      7.96587026	     -4.33203481
      5.47000000	      1.04217073	     -7.14032180	     10.70678462	      1.14448970	      0.67100023	     -0.19180553	      8.01876496	     11.27546682	    -10.19276032	    -10.41999718	     12.33931087	    -12.92215586	      0.00000000	     23.99191116	     -4.57842956	      3.31238209	    -77.35765234	     -4.40766634	    -21.95130724	      0.00000000	    -19.03424319	      7.42449730	     -3.36704252
      5.48000000	      0.72050724	     -6.97061189	      9.81697286	      1.15362760	      0.67156901	     -0.19085425	      7.07270010	     11.36347793	     -9.35817393	     -9.82747247	     12.92908461	    -12.39433791	      0.00000000	     26.69126157	     -4.18582190	      3.17245864	    -77.69105055	     -2.49028099	    -20.07663143	      0.00000000	    -19.12196559	      6.80836102	     -2.48822192
